<svg xmlns="http://www.w3.org/2000/svg" viewBox="0 0 400 400" width="100%" height="100%">
  <defs>
    <linearGradient id="bg2" x1="0%" y1="0%" x2="100%" y2="100%">
      <stop offset="0%" stop-color="#fed7aa" />
      <stop offset="100%" stop-color="#fbcfe8" />
    </linearGradient>
  </defs>
  <rect width="400" height="400" fill="url(#bg2)" rx="16"/>
  <!-- Coffee Cup / Café Vibe -->
  <rect x="130" y="180" width="140" height="120" rx="20" fill="#ffffff"/>
  <path d="M 270 210 C 310 210, 310 270, 270 270" stroke="#ffffff" stroke-width="12" fill="none" stroke-linecap="round"/>
  <path d="M 160 150 Q 170 120 160 100" stroke="#f43f5e" stroke-width="4" stroke-linecap="round" fill="none" opacity="0.7"/>
  <path d="M 200 150 Q 210 120 200 100" stroke="#f43f5e" stroke-width="4" stroke-linecap="round" fill="none" opacity="0.7"/>
  <path d="M 240 150 Q 250 120 240 100" stroke="#f43f5e" stroke-width="4" stroke-linecap="round" fill="none" opacity="0.7"/>
  <!-- Heart on Cup -->
  <path d="M 210 230 C 210 220, 195 210, 185 225 C 175 210, 160 220, 160 230 C 160 245, 185 260, 185 265 C 185 260, 210 245, 210 230 Z" fill="#e11d48"/>
  <text x="200" y="340" font-family="'Caveat', cursive" font-size="28" fill="#9f1239" text-anchor="middle">Endless Coffee & Chats ☕</text>
</svg>
